<?xml version="1.0"?>
<svg version="1.1" xmlns="http://www.w3.org/2000/svg" xmlns:xlink="http://www.w3.org/1999/xlink" width="700" height="480">
    <desc iVinci="yes" version="4.6" gridStep="20" showGrid="no" snapToGrid="no" codePlatform="0"/>
    <g id="Layer1" name="Layer 1" opacity="1">
        <g id="Shape1">
            <desc shapeID="1" type="0" basicInfo-basicType="2" basicInfo-roundedRectRadius="12" basicInfo-polygonSides="6" basicInfo-starPoints="5" bounding="rect(-338.508,-229.01,677.015,458.02)" text="" font-familyName="Helvetica" font-pixelSize="20" font-bold="0" font-underline="0" font-alignment="1" strokeStyle="0" markerStart="0" markerEnd="0" shadowEnabled="0" shadowOffsetX="0" shadowOffsetY="2" shadowBlur="4" shadowOpacity="160" blurEnabled="0" blurRadius="4" transform="matrix(1,0,0,1,349.858,240.36)" pers-center="0,0" pers-size="0,0" pers-start="0,0" pers-end="0,0" locked="0" mesh="" flag=""/>
            <path id="shapePath1" d="M11.3503,23.3504 C11.3503,16.7229 16.7229,11.3504 23.3503,11.3504 L676.366,11.3504 C682.993,11.3504 688.366,16.7229 688.366,23.3504 L688.366,457.371 C688.366,463.998 682.993,469.371 676.366,469.371 L23.3503,469.371 C16.7229,469.371 11.3503,463.998 11.3503,457.371 L11.3503,23.3504 Z" style="stroke:#323232;stroke-opacity:1;stroke-width:1;stroke-linejoin:miter;stroke-miterlimit:2;stroke-linecap:round;fill-rule:evenodd;fill:#966707;fill-opacity:1;"/>
        </g>
        <g id="Shape2">
            <desc shapeID="2" type="2" basicInfo-basicType="0" basicInfo-roundedRectRadius="12" basicInfo-polygonSides="6" basicInfo-starPoints="5" bounding="rect(-205.642,-68.1021,411.283,136.204)" text="SLIDE FOURE" font-familyName="Helvetica" font-pixelSize="120" font-bold="1" font-underline="0" font-alignment="1" strokeStyle="0" markerStart="0" markerEnd="0" shadowEnabled="0" shadowOffsetX="0" shadowOffsetY="2" shadowBlur="4" shadowOpacity="160" blurEnabled="0" blurRadius="4" transform="matrix(1,0,0,1,365.214,226.339)" pers-center="0,0" pers-size="0,0" pers-start="0,0" pers-end="0,0" locked="0" mesh="" flag=""/>
            <path id="shapePath2" d="M210.75,171.976 C211.296,175.921 212.371,178.871 213.972,180.824 C216.902,184.379 221.921,186.156 229.031,186.156 C233.289,186.156 236.746,185.687 239.402,184.75 C244.441,182.953 246.96,179.613 246.96,174.73 C246.96,171.879 245.71,169.671 243.21,168.109 C240.71,166.586 236.785,165.238 231.433,164.066 L222.293,162.015 C213.308,159.984 207.097,157.777 203.66,155.394 C197.839,151.41 194.929,145.179 194.929,136.703 C194.929,128.968 197.742,122.543 203.367,117.425 C208.992,112.308 217.253,109.75 228.152,109.75 C237.253,109.75 245.017,112.162 251.443,116.986 C257.869,121.81 261.238,128.812 261.55,137.992 L244.207,137.992 C243.894,132.796 241.628,129.105 237.41,126.918 C234.597,125.472 231.101,124.75 226.921,124.75 C222.273,124.75 218.562,125.687 215.789,127.562 C213.015,129.437 211.628,132.054 211.628,135.414 C211.628,138.5 212.996,140.804 215.73,142.328 C217.488,143.343 221.238,144.535 226.98,145.902 L241.863,149.476 C248.386,151.039 253.308,153.129 256.628,155.746 C261.785,159.808 264.363,165.687 264.363,173.382 C264.363,181.273 261.345,187.826 255.31,193.041 C249.275,198.255 240.75,200.863 229.734,200.863 C218.484,200.863 209.636,198.295 203.191,193.158 C196.746,188.021 193.523,180.961 193.523,171.976 L210.75,171.976 M277.714,112.269 L295.761,112.269 L295.761,183.109 L338.535,183.109 L338.535,198.636 L277.714,198.636 L277.714,112.269 M367.535,198.636 L349.605,198.636 L349.605,112.269 L367.535,112.269 L367.535,198.636 M401.859,127.269 L401.859,183.636 L418.5,183.636 C427.015,183.636 432.953,179.437 436.312,171.039 C438.148,166.429 439.066,160.941 439.066,154.574 C439.066,145.785 437.689,139.037 434.935,134.33 C432.181,129.623 426.703,127.269 418.5,127.269 L401.859,127.269 M434.906,114.144 C440.96,116.136 445.863,119.789 449.613,125.101 C452.621,129.398 454.671,134.046 455.765,139.046 C456.859,144.046 457.406,148.812 457.406,153.343 C457.406,164.828 455.101,174.554 450.492,182.523 C444.242,193.265 434.593,198.636 421.546,198.636 L384.339,198.636 L384.339,112.269 L421.546,112.269 C426.898,112.347 431.351,112.972 434.906,114.144 M534.863,127.562 L489.16,127.562 L489.16,145.902 L531.113,145.902 L531.113,160.902 L489.16,160.902 L489.16,183.109 L536.972,183.109 L536.972,198.636 L471.523,198.636 L471.523,112.269 L534.863,112.269 L534.863,127.562 M164.371,232.386 L225.601,232.386 L225.601,247.562 L182.3,247.562 L182.3,267.425 L220.21,267.425 L220.21,282.425 L182.3,282.425 L182.3,318.636 L164.371,318.636 L164.371,232.386 M292.892,297.836 C297.091,292.562 299.191,285.062 299.191,275.336 C299.191,265.648 297.091,258.158 292.892,252.865 C288.693,247.572 283.019,244.925 275.871,244.925 C268.722,244.925 263.019,247.562 258.761,252.836 C254.503,258.109 252.375,265.609 252.375,275.336 C252.375,285.062 254.503,292.562 258.761,297.836 C263.019,303.109 268.722,305.746 275.871,305.746 C283.019,305.746 288.693,303.109 292.892,297.836 M304.171,310.961 C297.648,317.679 288.214,321.039 275.871,321.039 C263.527,321.039 254.093,317.679 247.57,310.961 C238.82,302.718 234.445,290.843 234.445,275.336 C234.445,259.515 238.82,247.64 247.57,239.711 C254.093,232.992 263.527,229.632 275.871,229.632 C288.214,229.632 297.648,232.992 304.171,239.711 C312.882,247.64 317.238,259.515 317.238,275.336 C317.238,290.843 312.882,302.718 304.171,310.961 M330.996,232.269 L349.335,232.269 L349.335,285.355 C349.335,291.293 350.039,295.629 351.445,298.363 C353.632,303.207 358.398,305.629 365.742,305.629 C373.046,305.629 377.793,303.207 379.98,298.363 C381.386,295.629 382.089,291.293 382.089,285.355 L382.089,232.269 L400.429,232.269 L400.429,285.355 C400.429,294.535 399.003,301.683 396.152,306.8 C390.839,316.175 380.703,320.863 365.742,320.863 C350.781,320.863 340.625,316.175 335.273,306.8 C332.421,301.683 330.996,294.535 330.996,285.355 L330.996,232.269 M435.699,247.269 L435.699,270.472 L456.148,270.472 C460.21,270.472 463.257,270.004 465.289,269.066 C468.882,267.425 470.679,264.183 470.679,259.339 C470.679,254.105 468.941,250.589 465.464,248.793 C463.511,247.777 460.582,247.269 456.675,247.269 L435.699,247.269 M474.4,234.496 C477.662,235.863 480.425,237.875 482.691,240.531 C484.566,242.718 486.05,245.14 487.144,247.796 C488.238,250.453 488.785,253.48 488.785,256.879 C488.785,260.98 487.75,265.013 485.679,268.978 C483.609,272.943 480.191,275.746 475.425,277.386 C479.41,278.988 482.232,281.263 483.892,284.212 C485.552,287.162 486.382,291.664 486.382,297.718 L486.382,303.519 C486.382,307.464 486.539,310.14 486.851,311.546 C487.32,313.773 488.414,315.414 490.132,316.468 L490.132,318.636 L470.269,318.636 C469.722,316.722 469.332,315.179 469.097,314.007 C468.628,311.586 468.375,309.105 468.335,306.566 L468.218,298.539 C468.14,293.031 467.134,289.359 465.201,287.523 C463.267,285.687 459.644,284.769 454.332,284.769 L435.699,284.769 L435.699,318.636 L418.062,318.636 L418.062,232.269 L460.425,232.269 C466.48,232.386 471.138,233.129 474.4,234.496 M568.175,247.562 L522.472,247.562 L522.472,265.902 L564.425,265.902 L564.425,280.902 L522.472,280.902 L522.472,303.109 L570.285,303.109 L570.285,318.636 L504.835,318.636 L504.835,232.269 L568.175,232.269 L568.175,247.562 Z" style="stroke:none;fill-rule:nonzero;fill:#ffffff;fill-opacity:1;"/>
        </g>
    </g>
</svg>
