<?xml version="1.0"?>
<svg version="1.1" xmlns="http://www.w3.org/2000/svg" xmlns:xlink="http://www.w3.org/1999/xlink" width="700" height="480">
    <desc iVinci="yes" version="4.6" gridStep="20" showGrid="no" snapToGrid="no" codePlatform="0"/>
    <g id="Layer1" name="Layer 1" opacity="1">
        <g id="Shape1">
            <desc shapeID="1" type="0" basicInfo-basicType="2" basicInfo-roundedRectRadius="12" basicInfo-polygonSides="6" basicInfo-starPoints="5" bounding="rect(-338.508,-229.01,677.016,458.021)" text="" font-familyName="Helvetica" font-pixelSize="20" font-bold="0" font-underline="0" font-alignment="1" strokeStyle="0" markerStart="0" markerEnd="0" shadowEnabled="0" shadowOffsetX="0" shadowOffsetY="2" shadowBlur="4" shadowOpacity="160" blurEnabled="0" blurRadius="4" transform="matrix(1,0,0,1,349.859,240.361)" pers-center="0,0" pers-size="0,0" pers-start="0,0" pers-end="0,0" locked="0" mesh="" flag=""/>
            <path id="shapePath1" d="M11.3503,23.3504 C11.3503,16.7229 16.7229,11.3504 23.3503,11.3504 L676.366,11.3504 C682.993,11.3504 688.366,16.7229 688.366,23.3504 L688.366,457.371 C688.366,463.998 682.993,469.371 676.366,469.371 L23.3503,469.371 C16.7229,469.371 11.3503,463.998 11.3503,457.371 L11.3503,23.3504 Z" style="stroke:#323232;stroke-opacity:1;stroke-width:1;stroke-linejoin:miter;stroke-miterlimit:2;stroke-linecap:round;fill-rule:evenodd;fill:#939600;fill-opacity:1;"/>
        </g>
        <g id="Shape2">
            <desc shapeID="2" type="2" basicInfo-basicType="0" basicInfo-roundedRectRadius="12" basicInfo-polygonSides="6" basicInfo-starPoints="5" bounding="rect(-205.642,-68.1021,411.283,136.204)" text="SLIDE SEVEN" font-familyName="Helvetica" font-pixelSize="120" font-bold="1" font-underline="0" font-alignment="1" strokeStyle="0" markerStart="0" markerEnd="0" shadowEnabled="0" shadowOffsetX="0" shadowOffsetY="2" shadowBlur="4" shadowOpacity="160" blurEnabled="0" blurRadius="4" transform="matrix(1,0,0,1,365.214,226.339)" pers-center="0,0" pers-size="0,0" pers-start="0,0" pers-end="0,0" locked="0" mesh="" flag=""/>
            <path id="shapePath2" d="M210.749,171.976 C211.296,175.921 212.37,178.87 213.972,180.823 C216.901,184.378 221.921,186.155 229.03,186.155 C233.288,186.155 236.745,185.687 239.401,184.749 C244.441,182.952 246.96,179.612 246.96,174.73 C246.96,171.878 245.71,169.671 243.21,168.109 C240.71,166.585 236.784,165.237 231.433,164.066 L222.292,162.015 C213.308,159.984 207.097,157.777 203.659,155.394 C197.839,151.409 194.929,145.179 194.929,136.702 C194.929,128.968 197.741,122.542 203.366,117.425 C208.991,112.308 217.253,109.749 228.151,109.749 C237.253,109.749 245.017,112.161 251.443,116.985 C257.868,121.81 261.237,128.812 261.55,137.991 L244.206,137.991 C243.894,132.796 241.628,129.105 237.409,126.917 C234.597,125.472 231.101,124.749 226.921,124.749 C222.273,124.749 218.562,125.687 215.788,127.562 C213.015,129.437 211.628,132.054 211.628,135.413 C211.628,138.499 212.995,140.804 215.73,142.327 C217.487,143.343 221.237,144.534 226.98,145.902 L241.862,149.476 C248.386,151.038 253.308,153.128 256.628,155.745 C261.784,159.808 264.362,165.687 264.362,173.382 C264.362,181.273 261.345,187.825 255.31,193.04 C249.275,198.255 240.749,200.862 229.734,200.862 C218.484,200.862 209.636,198.294 203.191,193.157 C196.745,188.021 193.523,180.96 193.523,171.976 L210.749,171.976 M277.714,112.269 L295.761,112.269 L295.761,183.109 L338.534,183.109 L338.534,198.636 L277.714,198.636 L277.714,112.269 M367.534,198.636 L349.605,198.636 L349.605,112.269 L367.534,112.269 L367.534,198.636 M401.859,127.269 L401.859,183.636 L418.499,183.636 C427.015,183.636 432.952,179.437 436.312,171.038 C438.148,166.429 439.066,160.941 439.066,154.573 C439.066,145.784 437.689,139.036 434.935,134.329 C432.181,129.622 426.702,127.269 418.499,127.269 L401.859,127.269 M434.905,114.144 C440.96,116.136 445.862,119.788 449.612,125.101 C452.62,129.398 454.671,134.046 455.765,139.046 C456.859,144.046 457.405,148.812 457.405,153.343 C457.405,164.827 455.101,174.554 450.491,182.523 C444.241,193.265 434.593,198.636 421.546,198.636 L384.339,198.636 L384.339,112.269 L421.546,112.269 C426.898,112.347 431.351,112.972 434.905,114.144 M534.862,127.562 L489.159,127.562 L489.159,145.902 L531.112,145.902 L531.112,160.902 L489.159,160.902 L489.159,183.109 L536.972,183.109 L536.972,198.636 L471.523,198.636 L471.523,112.269 L534.862,112.269 L534.862,127.562 M184.03,291.976 C184.577,295.921 185.651,298.87 187.253,300.823 C190.183,304.378 195.202,306.155 202.312,306.155 C206.569,306.155 210.026,305.687 212.683,304.749 C217.722,302.952 220.241,299.612 220.241,294.73 C220.241,291.878 218.991,289.671 216.491,288.109 C213.991,286.585 210.066,285.237 204.714,284.066 L195.573,282.015 C186.589,279.984 180.378,277.776 176.941,275.394 C171.12,271.409 168.21,265.179 168.21,256.702 C168.21,248.968 171.023,242.542 176.648,237.425 C182.273,232.308 190.534,229.749 201.433,229.749 C210.534,229.749 218.298,232.161 224.724,236.985 C231.15,241.81 234.519,248.812 234.831,257.991 L217.487,257.991 C217.175,252.796 214.909,249.105 210.691,246.917 C207.878,245.472 204.382,244.749 200.202,244.749 C195.554,244.749 191.843,245.687 189.069,247.562 C186.296,249.437 184.909,252.054 184.909,255.413 C184.909,258.499 186.276,260.804 189.011,262.327 C190.769,263.343 194.519,264.534 200.261,265.901 L215.144,269.476 C221.667,271.038 226.589,273.128 229.909,275.745 C235.066,279.808 237.644,285.687 237.644,293.382 C237.644,301.273 234.626,307.825 228.591,313.04 C222.556,318.255 214.03,320.862 203.015,320.862 C191.765,320.862 182.917,318.294 176.472,313.157 C170.026,308.021 166.804,300.96 166.804,291.976 L184.03,291.976 M314.862,247.562 L269.159,247.562 L269.159,265.901 L311.112,265.901 L311.112,280.901 L269.159,280.901 L269.159,303.109 L316.972,303.109 L316.972,318.636 L251.523,318.636 L251.523,232.269 L314.862,232.269 L314.862,247.562 M381.593,232.269 L400.343,232.269 L370.87,318.636 L353.819,318.636 L324.64,232.269 L343.917,232.269 L362.667,297.835 L381.593,232.269 M474.925,247.562 L429.222,247.562 L429.222,265.901 L471.175,265.901 L471.175,280.901 L429.222,280.901 L429.222,303.109 L477.034,303.109 L477.034,318.636 L411.585,318.636 L411.585,232.269 L474.925,232.269 L474.925,247.562 M490.796,232.269 L509.722,232.269 L544.116,292.562 L544.116,232.269 L560.933,232.269 L560.933,318.636 L542.886,318.636 L507.612,257.288 L507.612,318.636 L490.796,318.636 L490.796,232.269 Z" style="stroke:none;fill-rule:nonzero;fill:#ffffff;fill-opacity:1;"/>
        </g>
    </g>
</svg>
