<?xml version="1.0"?>
<svg version="1.1" xmlns="http://www.w3.org/2000/svg" xmlns:xlink="http://www.w3.org/1999/xlink" width="700" height="480">
    <desc iVinci="yes" version="4.6" gridStep="20" showGrid="no" snapToGrid="no" codePlatform="0"/>
    <g id="Layer1" name="Layer 1" opacity="1">
        <g id="Shape1">
            <desc shapeID="1" type="0" basicInfo-basicType="2" basicInfo-roundedRectRadius="12" basicInfo-polygonSides="6" basicInfo-starPoints="5" bounding="rect(-338.508,-229.01,677.015,458.02)" text="" font-familyName="Helvetica" font-pixelSize="20" font-bold="0" font-underline="0" font-alignment="1" strokeStyle="0" markerStart="0" markerEnd="0" shadowEnabled="0" shadowOffsetX="0" shadowOffsetY="2" shadowBlur="4" shadowOpacity="160" blurEnabled="0" blurRadius="4" transform="matrix(1,0,0,1,349.858,240.36)" pers-center="0,0" pers-size="0,0" pers-start="0,0" pers-end="0,0" locked="0" mesh="" flag=""/>
            <path id="shapePath1" d="M11.3503,23.3504 C11.3503,16.7229 16.7229,11.3504 23.3503,11.3504 L676.366,11.3504 C682.993,11.3504 688.366,16.7229 688.366,23.3504 L688.366,457.371 C688.366,463.998 682.993,469.371 676.366,469.371 L23.3503,469.371 C16.7229,469.371 11.3503,463.998 11.3503,457.371 L11.3503,23.3504 Z" style="stroke:#323232;stroke-opacity:1;stroke-width:1;stroke-linejoin:miter;stroke-miterlimit:2;stroke-linecap:round;fill-rule:evenodd;fill:#737a96;fill-opacity:1;"/>
        </g>
        <g id="Shape2">
            <desc shapeID="2" type="2" basicInfo-basicType="0" basicInfo-roundedRectRadius="12" basicInfo-polygonSides="6" basicInfo-starPoints="5" bounding="rect(-205.642,-68.1021,411.283,136.204)" text="SLIDE EIGHT" font-familyName="Helvetica" font-pixelSize="120" font-bold="1" font-underline="0" font-alignment="1" strokeStyle="0" markerStart="0" markerEnd="0" shadowEnabled="0" shadowOffsetX="0" shadowOffsetY="2" shadowBlur="4" shadowOpacity="160" blurEnabled="0" blurRadius="4" transform="matrix(1,0,0,1,365.214,226.339)" pers-center="0,0" pers-size="0,0" pers-start="0,0" pers-end="0,0" locked="0" mesh="" flag=""/>
            <path id="shapePath2" d="M210.75,171.976 C211.296,175.921 212.371,178.871 213.972,180.824 C216.902,184.379 221.921,186.156 229.031,186.156 C233.289,186.156 236.746,185.687 239.402,184.75 C244.441,182.953 246.96,179.613 246.96,174.73 C246.96,171.879 245.71,169.671 243.21,168.109 C240.71,166.586 236.785,165.238 231.433,164.066 L222.293,162.015 C213.308,159.984 207.097,157.777 203.66,155.394 C197.839,151.41 194.929,145.179 194.929,136.703 C194.929,128.968 197.742,122.543 203.367,117.425 C208.992,112.308 217.253,109.75 228.152,109.75 C237.253,109.75 245.017,112.162 251.443,116.986 C257.869,121.81 261.238,128.812 261.55,137.992 L244.207,137.992 C243.894,132.796 241.628,129.105 237.41,126.918 C234.597,125.472 231.101,124.75 226.921,124.75 C222.273,124.75 218.562,125.687 215.789,127.562 C213.015,129.437 211.628,132.054 211.628,135.414 C211.628,138.5 212.996,140.804 215.73,142.328 C217.488,143.343 221.238,144.535 226.98,145.902 L241.863,149.476 C248.386,151.039 253.308,153.129 256.628,155.746 C261.785,159.808 264.363,165.687 264.363,173.382 C264.363,181.273 261.345,187.826 255.31,193.041 C249.275,198.255 240.75,200.863 229.734,200.863 C218.484,200.863 209.636,198.295 203.191,193.158 C196.746,188.021 193.523,180.961 193.523,171.976 L210.75,171.976 M277.714,112.269 L295.761,112.269 L295.761,183.109 L338.535,183.109 L338.535,198.636 L277.714,198.636 L277.714,112.269 M367.535,198.636 L349.605,198.636 L349.605,112.269 L367.535,112.269 L367.535,198.636 M401.859,127.269 L401.859,183.636 L418.5,183.636 C427.015,183.636 432.953,179.437 436.312,171.039 C438.148,166.429 439.066,160.941 439.066,154.574 C439.066,145.785 437.689,139.037 434.935,134.33 C432.181,129.623 426.703,127.269 418.5,127.269 L401.859,127.269 M434.906,114.144 C440.96,116.136 445.863,119.789 449.613,125.101 C452.621,129.398 454.671,134.046 455.765,139.046 C456.859,144.046 457.406,148.812 457.406,153.343 C457.406,164.828 455.101,174.554 450.492,182.523 C444.242,193.265 434.593,198.636 421.546,198.636 L384.339,198.636 L384.339,112.269 L421.546,112.269 C426.898,112.347 431.351,112.972 434.906,114.144 M534.863,127.562 L489.16,127.562 L489.16,145.902 L531.113,145.902 L531.113,160.902 L489.16,160.902 L489.16,183.109 L536.972,183.109 L536.972,198.636 L471.523,198.636 L471.523,112.269 L534.863,112.269 L534.863,127.562 M254.91,247.562 L209.207,247.562 L209.207,265.902 L251.16,265.902 L251.16,280.902 L209.207,280.902 L209.207,303.109 L257.019,303.109 L257.019,318.636 L191.57,318.636 L191.57,232.269 L254.91,232.269 L254.91,247.562 M287.597,318.636 L269.668,318.636 L269.668,232.269 L287.597,232.269 L287.597,318.636 M362.468,259.222 C361.101,253.324 357.761,249.203 352.449,246.859 C349.48,245.57 346.179,244.925 342.546,244.925 C335.593,244.925 329.88,247.552 325.408,252.806 C320.935,258.06 318.699,265.961 318.699,276.507 C318.699,287.132 321.121,294.652 325.964,299.066 C330.808,303.48 336.316,305.687 342.488,305.687 C348.543,305.687 353.503,303.939 357.371,300.443 C361.238,296.947 363.621,292.367 364.519,286.703 L344.539,286.703 L344.539,272.289 L380.515,272.289 L380.515,318.636 L368.562,318.636 L366.746,307.855 C363.269,311.957 360.144,314.847 357.371,316.527 C352.605,319.457 346.746,320.921 339.793,320.921 C328.347,320.921 318.972,316.957 311.668,309.027 C304.05,301.058 300.242,290.16 300.242,276.332 C300.242,262.347 304.089,251.136 311.785,242.699 C319.48,234.261 329.656,230.043 342.312,230.043 C353.289,230.043 362.107,232.826 368.767,238.392 C375.427,243.959 379.246,250.902 380.222,259.222 L362.468,259.222 M397.613,318.636 L397.613,232.269 L415.484,232.269 L415.484,265.199 L449.234,265.199 L449.234,232.269 L467.164,232.269 L467.164,318.636 L449.234,318.636 L449.234,280.082 L415.484,280.082 L415.484,318.636 L397.613,318.636 M547.14,232.269 L547.14,247.562 L521.3,247.562 L521.3,318.636 L503.136,318.636 L503.136,247.562 L477.179,247.562 L477.179,232.269 L547.14,232.269 Z" style="stroke:none;fill-rule:nonzero;fill:#ffffff;fill-opacity:1;"/>
        </g>
    </g>
</svg>
